<?xml version="1.0" encoding="utf-8"?>
<!-- Generator: Adobe Illustrator 24.1.2, SVG Export Plug-In . SVG Version: 6.00 Build 0)  -->
<svg version="1.1" id="Layer_1" xmlns="http://www.w3.org/2000/svg" xmlns:xlink="http://www.w3.org/1999/xlink" x="0px" y="0px"
	 viewBox="0 0 425.38 147.69" style="enable-background:new 0 0 425.38 147.69;" xml:space="preserve">
<style type="text/css">
	.st0{fill:#FFFFFF;stroke:#FFFFFF;stroke-miterlimit:10;}
</style>
<g>
	<ellipse class="st0" cx="31.15" cy="79.41" rx="14.23" ry="65"/>
	<ellipse class="st0" cx="66.92" cy="20.57" rx="40.77" ry="12.98"/>
	<ellipse class="st0" cx="63.85" cy="72.1" rx="37.69" ry="13.08"/>
</g>
<g>
	<ellipse transform="matrix(0.3121 -0.95 0.95 0.3121 24.2342 175.0096)" class="st0" cx="132.97" cy="70.77" rx="66.89" ry="15"/>
	<g>
		
			<ellipse transform="matrix(0.9043 -0.427 0.427 0.9043 -12.3589 83.8557)" class="st0" cx="180.82" cy="69.49" rx="15" ry="66.6"/>
	</g>
	<ellipse class="st0" cx="156.9" cy="83.57" rx="23.92" ry="7.62"/>
</g>
<g>
	<ellipse class="st0" cx="247.93" cy="72.68" rx="11.54" ry="60"/>
	<ellipse transform="matrix(0.866 -0.5 0.5 0.866 16.2607 137.9728)" class="st0" cx="265.59" cy="38.64" rx="10" ry="30.77"/>
	
		<ellipse transform="matrix(0.5771 -0.8167 0.8167 0.5771 92.9771 256.8334)" class="st0" cx="294.47" cy="38.64" rx="30.77" ry="10"/>
	<ellipse class="st0" cx="314.47" cy="72.68" rx="11.54" ry="60"/>
</g>
<g>
	<ellipse class="st0" cx="379.88" cy="71.15" rx="12.31" ry="57.69"/>
	<ellipse class="st0" cx="379.88" cy="119.62" rx="42.12" ry="10.77"/>
	<ellipse class="st0" cx="379.88" cy="21.92" rx="42.12" ry="10.77"/>
</g>
</svg>
