<?xml version="1.0" encoding="utf-8"?>
<!-- Generator: Adobe Illustrator 24.1.2, SVG Export Plug-In . SVG Version: 6.00 Build 0)  -->
<svg version="1.1" id="Layer_1" xmlns="http://www.w3.org/2000/svg" xmlns:xlink="http://www.w3.org/1999/xlink" x="0px" y="0px"
	 viewBox="0 0 556.9 183.9" style="enable-background:new 0 0 556.9 183.9;" xml:space="preserve">
<style type="text/css">
	.st0{fill:#F2F2F2;}
	.st1{fill:#FFFFFF;}
	.st2{fill:#FFFFFF;stroke:#FFFFFF;stroke-width:1;stroke-miterlimit:9.9996;}
	.st3{fill:#FFFFFF;stroke:#FFFFFF;stroke-width:1;stroke-miterlimit:9.9998;}
	.st4{fill:#FFFFFF;stroke:#FFFFFF;stroke-miterlimit:10;}
</style>
<rect y="3.1" class="st0" width="27.7" height="180.8"/>
<rect x="26.9" y="3.1" class="st1" width="86.2" height="30"/>
<rect x="26.9" y="65.4" class="st1" width="86.2" height="31.5"/>
<ellipse transform="matrix(0.1602 -0.9871 0.9871 0.1602 129.6281 205.8196)" class="st1" cx="185.8" cy="26.7" rx="26.7" ry="26.7"/>
<path class="st1" d="M146.3,143.2c12.7-24.5,38.1-33.9,60.5-26.3c18.8,6.4,29,26,34.6,47.4c3-9.5,4.7-20,4.7-31
	c0-44.2-27-79.9-60.4-79.9s-60.4,35.8-60.4,79.9c0,17.7,4.4,34.1,11.7,47.4C137.8,167.6,140.5,154.4,146.3,143.2z"/>
<ellipse transform="matrix(0.1044 -0.9945 0.9945 0.1044 196.4913 423.6107)" class="st2" cx="333.4" cy="102.7" rx="64.2" ry="41.1"/>
<ellipse transform="matrix(0.9888 -0.1491 0.1491 0.9888 -10.942 62.0529)" class="st3" cx="408.4" cy="104" rx="41.1" ry="64.2"/>
<path class="st4" d="M556.2,121.4c-0.1-0.1-0.2-0.1-0.3-0.2c-3.3-2.6-5.4-5.9-6.7-9.6c-0.9-1.1-1.1-2.4-1-3.6
	c-0.4-1.9-0.7-3.9-0.8-5.9c-1.3-5.2-2.3-10.6-3.5-15.7c-1.3-5.7-2.8-11.5-5.4-16.7c-1.7-3.3-4.9-8.9-9-9.6
	c-6.5-1.1-13.6,13.9-15.9,18.3c-4.2,8.1-7.8,16.8-10,25.6c4.5,16.9,4.2,34.8,6.9,52.1c4.9,6.8,11,10.8,17.6,10.8
	c14,0,25.8-18.1,28.8-42.5C556.7,123.4,556.5,122.4,556.2,121.4z"/>
<ellipse class="st4" cx="524.6" cy="26.7" rx="20" ry="15"/>
</svg>
